<svg xmlns="http://www.w3.org/2000/svg" width="1010" height="576" viewBox="0 0 1010 576" role="img" aria-label="Comparison of tests for the four acids">
<title>Comparison of tests for the four acids</title>
<desc>Comparison of tests for the four acids</desc>
<rect width="1010" height="576" fill="#ffffff"/>
<text x="505.0" y="34.0" font-family="Arial, Helvetica, 'DejaVu Sans', sans-serif" font-size="22" text-anchor="middle" font-weight="bold" fill="#1f2328" >Q1(b): Test comparison matrix</text><text x="505.0" y="58.0" font-family="Arial, Helvetica, 'DejaVu Sans', sans-serif" font-size="14" text-anchor="middle" font-weight="normal" fill="#57606a" >Green tick = positive result, grey cross = no reaction</text><rect x="30" y="96" width="270" height="56" fill="#374151"/><text x="165.0" y="130.0" font-family="Arial, Helvetica, 'DejaVu Sans', sans-serif" font-size="15" text-anchor="middle" font-weight="bold" fill="#fff" >Test / property</text><rect x="300" y="96" width="170" height="56" fill="#dc2626"/><text x="385.0" y="120.0" font-family="Arial, Helvetica, 'DejaVu Sans', sans-serif" font-size="15" text-anchor="middle" font-weight="bold" fill="#fff" >Formic acid</text><text x="385.0" y="140.0" font-family="Arial, Helvetica, 'DejaVu Sans', sans-serif" font-size="13" text-anchor="middle" font-weight="normal" fill="#fff" >HCOOH</text><rect x="470" y="96" width="170" height="56" fill="#d97706"/><text x="555.0" y="120.0" font-family="Arial, Helvetica, 'DejaVu Sans', sans-serif" font-size="15" text-anchor="middle" font-weight="bold" fill="#fff" >Acetic acid</text><text x="523.6" y="140.0" font-family="Arial, Helvetica, 'DejaVu Sans', sans-serif" font-size="13.0" text-anchor="start" font-weight="normal" fill="#fff" >CH</text><text x="542.4" y="143.1" font-family="Arial, Helvetica, 'DejaVu Sans', sans-serif" font-size="9.1" text-anchor="start" font-weight="normal" fill="#fff" >3</text><text x="547.4" y="140.0" font-family="Arial, Helvetica, 'DejaVu Sans', sans-serif" font-size="13.0" text-anchor="start" font-weight="normal" fill="#fff" >COOH</text><rect x="640" y="96" width="170" height="56" fill="#2563eb"/><text x="725.0" y="120.0" font-family="Arial, Helvetica, 'DejaVu Sans', sans-serif" font-size="15" text-anchor="middle" font-weight="bold" fill="#fff" >Oxalic acid</text><text x="698.6" y="140.0" font-family="Arial, Helvetica, 'DejaVu Sans', sans-serif" font-size="13.0" text-anchor="start" font-weight="normal" fill="#fff" >(COOH)</text><text x="746.3" y="143.1" font-family="Arial, Helvetica, 'DejaVu Sans', sans-serif" font-size="9.1" text-anchor="start" font-weight="normal" fill="#fff" >2</text><rect x="810" y="96" width="170" height="56" fill="#7c3aed"/><text x="895.0" y="120.0" font-family="Arial, Helvetica, 'DejaVu Sans', sans-serif" font-size="15" text-anchor="middle" font-weight="bold" fill="#fff" >Benzoic acid</text><text x="861.1" y="140.0" font-family="Arial, Helvetica, 'DejaVu Sans', sans-serif" font-size="13.0" text-anchor="start" font-weight="normal" fill="#fff" >C</text><text x="870.4" y="143.1" font-family="Arial, Helvetica, 'DejaVu Sans', sans-serif" font-size="9.1" text-anchor="start" font-weight="normal" fill="#fff" >6</text><text x="875.5" y="140.0" font-family="Arial, Helvetica, 'DejaVu Sans', sans-serif" font-size="13.0" text-anchor="start" font-weight="normal" fill="#fff" >H</text><text x="884.9" y="143.1" font-family="Arial, Helvetica, 'DejaVu Sans', sans-serif" font-size="9.1" text-anchor="start" font-weight="normal" fill="#fff" >5</text><text x="889.9" y="140.0" font-family="Arial, Helvetica, 'DejaVu Sans', sans-serif" font-size="13.0" text-anchor="start" font-weight="normal" fill="#fff" >COOH</text><rect x="30" y="152" width="950" height="40" fill="#ffffff" stroke="#d0d7de" stroke-width="1"/><text x="42.0" y="177.0" font-family="Arial, Helvetica, 'DejaVu Sans', sans-serif" font-size="13.5" text-anchor="start" font-weight="bold" fill="#1f2328" >Physical state</text><text x="385.0" y="177.0" font-family="Arial, Helvetica, 'DejaVu Sans', sans-serif" font-size="13" text-anchor="middle" font-weight="normal" fill="#1f2328" >liquid</text><text x="555.0" y="177.0" font-family="Arial, Helvetica, 'DejaVu Sans', sans-serif" font-size="13" text-anchor="middle" font-weight="normal" fill="#1f2328" >liquid</text><text x="725.0" y="177.0" font-family="Arial, Helvetica, 'DejaVu Sans', sans-serif" font-size="13" text-anchor="middle" font-weight="normal" fill="#1f2328" >solid</text><text x="895.0" y="177.0" font-family="Arial, Helvetica, 'DejaVu Sans', sans-serif" font-size="13" text-anchor="middle" font-weight="normal" fill="#1f2328" >solid, m.p. 122 °C</text><rect x="30" y="192" width="950" height="40" fill="#f6f8fa" stroke="#d0d7de" stroke-width="1"/><text x="42.0" y="217.0" font-family="Arial, Helvetica, 'DejaVu Sans', sans-serif" font-size="13.5" text-anchor="start" font-weight="bold" fill="#1f2328" >NaHCO</text><text x="89.2" y="220.2" font-family="Arial, Helvetica, 'DejaVu Sans', sans-serif" font-size="9.4" text-anchor="start" font-weight="bold" fill="#1f2328" >3</text><text x="94.5" y="217.0" font-family="Arial, Helvetica, 'DejaVu Sans', sans-serif" font-size="13.5" text-anchor="start" font-weight="bold" fill="#1f2328" >: CO</text><text x="123.0" y="220.2" font-family="Arial, Helvetica, 'DejaVu Sans', sans-serif" font-size="9.4" text-anchor="start" font-weight="bold" fill="#1f2328" >2</text><text x="128.3" y="217.0" font-family="Arial, Helvetica, 'DejaVu Sans', sans-serif" font-size="13.5" text-anchor="start" font-weight="bold" fill="#1f2328" > fizz</text><circle cx="385.0" cy="212.0" r="12" fill="#16a34a"/><polyline points="379.5,212.5 383.5,216.5 391.0,207.5" fill="none" stroke="#fff" stroke-width="2.6" stroke-linecap="round" stroke-linejoin="round"/><circle cx="555.0" cy="212.0" r="12" fill="#16a34a"/><polyline points="549.5,212.5 553.5,216.5 561.0,207.5" fill="none" stroke="#fff" stroke-width="2.6" stroke-linecap="round" stroke-linejoin="round"/><circle cx="725.0" cy="212.0" r="12" fill="#16a34a"/><polyline points="719.5,212.5 723.5,216.5 731.0,207.5" fill="none" stroke="#fff" stroke-width="2.6" stroke-linecap="round" stroke-linejoin="round"/><circle cx="895.0" cy="212.0" r="12" fill="#16a34a"/><polyline points="889.5,212.5 893.5,216.5 901.0,207.5" fill="none" stroke="#fff" stroke-width="2.6" stroke-linecap="round" stroke-linejoin="round"/><rect x="30" y="232" width="950" height="40" fill="#ffffff" stroke="#d0d7de" stroke-width="1"/><text x="42.0" y="257.0" font-family="Arial, Helvetica, 'DejaVu Sans', sans-serif" font-size="13.5" text-anchor="start" font-weight="bold" fill="#1f2328" >Tollens' reagent (Ag mirror)</text><circle cx="385.0" cy="252.0" r="12" fill="#16a34a"/><polyline points="379.5,252.5 383.5,256.5 391.0,247.5" fill="none" stroke="#fff" stroke-width="2.6" stroke-linecap="round" stroke-linejoin="round"/><circle cx="555.0" cy="252.0" r="12" fill="#e5e7eb"/><path d="M550.5,247.5 L559.5,256.5 M559.5,247.5 L550.5,256.5" stroke="#6b7280" stroke-width="2.4" stroke-linecap="round"/><circle cx="725.0" cy="252.0" r="12" fill="#e5e7eb"/><path d="M720.5,247.5 L729.5,256.5 M729.5,247.5 L720.5,256.5" stroke="#6b7280" stroke-width="2.4" stroke-linecap="round"/><circle cx="895.0" cy="252.0" r="12" fill="#e5e7eb"/><path d="M890.5,247.5 L899.5,256.5 M899.5,247.5 L890.5,256.5" stroke="#6b7280" stroke-width="2.4" stroke-linecap="round"/><rect x="30" y="272" width="950" height="40" fill="#f6f8fa" stroke="#d0d7de" stroke-width="1"/><text x="42.0" y="297.0" font-family="Arial, Helvetica, 'DejaVu Sans', sans-serif" font-size="13.5" text-anchor="start" font-weight="bold" fill="#1f2328" >Fehling's solution (red Cu</text><text x="207.5" y="300.2" font-family="Arial, Helvetica, 'DejaVu Sans', sans-serif" font-size="9.4" text-anchor="start" font-weight="bold" fill="#1f2328" >2</text><text x="212.7" y="297.0" font-family="Arial, Helvetica, 'DejaVu Sans', sans-serif" font-size="13.5" text-anchor="start" font-weight="bold" fill="#1f2328" >O)</text><circle cx="385.0" cy="292.0" r="12" fill="#16a34a"/><polyline points="379.5,292.5 383.5,296.5 391.0,287.5" fill="none" stroke="#fff" stroke-width="2.6" stroke-linecap="round" stroke-linejoin="round"/><circle cx="555.0" cy="292.0" r="12" fill="#e5e7eb"/><path d="M550.5,287.5 L559.5,296.5 M559.5,287.5 L550.5,296.5" stroke="#6b7280" stroke-width="2.4" stroke-linecap="round"/><circle cx="725.0" cy="292.0" r="12" fill="#e5e7eb"/><path d="M720.5,287.5 L729.5,296.5 M729.5,287.5 L720.5,296.5" stroke="#6b7280" stroke-width="2.4" stroke-linecap="round"/><circle cx="895.0" cy="292.0" r="12" fill="#e5e7eb"/><path d="M890.5,287.5 L899.5,296.5 M899.5,287.5 L890.5,296.5" stroke="#6b7280" stroke-width="2.4" stroke-linecap="round"/><rect x="30" y="312" width="950" height="40" fill="#ffffff" stroke="#d0d7de" stroke-width="1"/><text x="42.0" y="337.0" font-family="Arial, Helvetica, 'DejaVu Sans', sans-serif" font-size="13.5" text-anchor="start" font-weight="bold" fill="#1f2328" >HgCl</text><text x="73.5" y="340.2" font-family="Arial, Helvetica, 'DejaVu Sans', sans-serif" font-size="9.4" text-anchor="start" font-weight="bold" fill="#1f2328" >2</text><text x="78.7" y="337.0" font-family="Arial, Helvetica, 'DejaVu Sans', sans-serif" font-size="13.5" text-anchor="start" font-weight="bold" fill="#1f2328" > (white to grey ppt)</text><circle cx="385.0" cy="332.0" r="12" fill="#16a34a"/><polyline points="379.5,332.5 383.5,336.5 391.0,327.5" fill="none" stroke="#fff" stroke-width="2.6" stroke-linecap="round" stroke-linejoin="round"/><circle cx="555.0" cy="332.0" r="12" fill="#e5e7eb"/><path d="M550.5,327.5 L559.5,336.5 M559.5,327.5 L550.5,336.5" stroke="#6b7280" stroke-width="2.4" stroke-linecap="round"/><circle cx="725.0" cy="332.0" r="12" fill="#e5e7eb"/><path d="M720.5,327.5 L729.5,336.5 M729.5,327.5 L720.5,336.5" stroke="#6b7280" stroke-width="2.4" stroke-linecap="round"/><circle cx="895.0" cy="332.0" r="12" fill="#e5e7eb"/><path d="M890.5,327.5 L899.5,336.5 M899.5,327.5 L890.5,336.5" stroke="#6b7280" stroke-width="2.4" stroke-linecap="round"/><rect x="30" y="352" width="950" height="40" fill="#f6f8fa" stroke="#d0d7de" stroke-width="1"/><text x="42.0" y="377.0" font-family="Arial, Helvetica, 'DejaVu Sans', sans-serif" font-size="13.5" text-anchor="start" font-weight="bold" fill="#1f2328" >Acidified KMnO</text><text x="142.5" y="380.2" font-family="Arial, Helvetica, 'DejaVu Sans', sans-serif" font-size="9.4" text-anchor="start" font-weight="bold" fill="#1f2328" >4</text><text x="147.8" y="377.0" font-family="Arial, Helvetica, 'DejaVu Sans', sans-serif" font-size="13.5" text-anchor="start" font-weight="bold" fill="#1f2328" > decolourised</text><circle cx="385.0" cy="372.0" r="12" fill="#16a34a"/><polyline points="379.5,372.5 383.5,376.5 391.0,367.5" fill="none" stroke="#fff" stroke-width="2.6" stroke-linecap="round" stroke-linejoin="round"/><circle cx="555.0" cy="372.0" r="12" fill="#e5e7eb"/><path d="M550.5,367.5 L559.5,376.5 M559.5,367.5 L550.5,376.5" stroke="#6b7280" stroke-width="2.4" stroke-linecap="round"/><circle cx="725.0" cy="372.0" r="12" fill="#16a34a"/><polyline points="719.5,372.5 723.5,376.5 731.0,367.5" fill="none" stroke="#fff" stroke-width="2.6" stroke-linecap="round" stroke-linejoin="round"/><text x="745.0" y="377.0" font-family="Arial, Helvetica, 'DejaVu Sans', sans-serif" font-size="11.5" text-anchor="start" font-weight="normal" fill="#57606a" >(warm)</text><circle cx="895.0" cy="372.0" r="12" fill="#e5e7eb"/><path d="M890.5,367.5 L899.5,376.5 M899.5,367.5 L890.5,376.5" stroke="#6b7280" stroke-width="2.4" stroke-linecap="round"/><rect x="30" y="392" width="950" height="40" fill="#ffffff" stroke="#d0d7de" stroke-width="1"/><text x="42.0" y="417.0" font-family="Arial, Helvetica, 'DejaVu Sans', sans-serif" font-size="13.5" text-anchor="start" font-weight="bold" fill="#1f2328" >Neutral FeCl</text><text x="121.5" y="420.2" font-family="Arial, Helvetica, 'DejaVu Sans', sans-serif" font-size="9.4" text-anchor="start" font-weight="bold" fill="#1f2328" >3</text><text x="385.0" y="417.0" font-family="Arial, Helvetica, 'DejaVu Sans', sans-serif" font-size="13" text-anchor="middle" font-weight="normal" fill="#1f2328" >red colour</text><text x="555.0" y="417.0" font-family="Arial, Helvetica, 'DejaVu Sans', sans-serif" font-size="13" text-anchor="middle" font-weight="normal" fill="#1f2328" >blood-red</text><text x="725.0" y="417.0" font-family="Arial, Helvetica, 'DejaVu Sans', sans-serif" font-size="13" text-anchor="middle" font-weight="normal" fill="#1f2328" >no colour</text><text x="895.0" y="417.0" font-family="Arial, Helvetica, 'DejaVu Sans', sans-serif" font-size="13" text-anchor="middle" font-weight="normal" fill="#1f2328" >buff ppt</text><rect x="30" y="432" width="950" height="40" fill="#f6f8fa" stroke="#d0d7de" stroke-width="1"/><text x="42.0" y="457.0" font-family="Arial, Helvetica, 'DejaVu Sans', sans-serif" font-size="13.5" text-anchor="start" font-weight="bold" fill="#1f2328" >CaCl</text><text x="72.8" y="460.2" font-family="Arial, Helvetica, 'DejaVu Sans', sans-serif" font-size="9.4" text-anchor="start" font-weight="bold" fill="#1f2328" >2</text><text x="78.0" y="457.0" font-family="Arial, Helvetica, 'DejaVu Sans', sans-serif" font-size="13.5" text-anchor="start" font-weight="bold" fill="#1f2328" > solution</text><circle cx="385.0" cy="452.0" r="12" fill="#e5e7eb"/><path d="M380.5,447.5 L389.5,456.5 M389.5,447.5 L380.5,456.5" stroke="#6b7280" stroke-width="2.4" stroke-linecap="round"/><circle cx="555.0" cy="452.0" r="12" fill="#e5e7eb"/><path d="M550.5,447.5 L559.5,456.5 M559.5,447.5 L550.5,456.5" stroke="#6b7280" stroke-width="2.4" stroke-linecap="round"/><text x="725.0" y="457.0" font-family="Arial, Helvetica, 'DejaVu Sans', sans-serif" font-size="13" text-anchor="middle" font-weight="normal" fill="#1f2328" >white ppt</text><circle cx="895.0" cy="452.0" r="12" fill="#e5e7eb"/><path d="M890.5,447.5 L899.5,456.5 M899.5,447.5 L890.5,456.5" stroke="#6b7280" stroke-width="2.4" stroke-linecap="round"/><rect x="30" y="472" width="950" height="40" fill="#ffffff" stroke="#d0d7de" stroke-width="1"/><text x="42.0" y="497.0" font-family="Arial, Helvetica, 'DejaVu Sans', sans-serif" font-size="13.5" text-anchor="start" font-weight="bold" fill="#1f2328" >Heat with conc. H</text><text x="154.5" y="500.2" font-family="Arial, Helvetica, 'DejaVu Sans', sans-serif" font-size="9.4" text-anchor="start" font-weight="bold" fill="#1f2328" >2</text><text x="159.8" y="497.0" font-family="Arial, Helvetica, 'DejaVu Sans', sans-serif" font-size="13.5" text-anchor="start" font-weight="bold" fill="#1f2328" >SO</text><text x="179.3" y="500.2" font-family="Arial, Helvetica, 'DejaVu Sans', sans-serif" font-size="9.4" text-anchor="start" font-weight="bold" fill="#1f2328" >4</text><text x="385.0" y="497.0" font-family="Arial, Helvetica, 'DejaVu Sans', sans-serif" font-size="13" text-anchor="middle" font-weight="normal" fill="#1f2328" >CO</text><text x="555.0" y="497.0" font-family="Arial, Helvetica, 'DejaVu Sans', sans-serif" font-size="13" text-anchor="middle" font-weight="normal" fill="#1f2328" >no gas</text><text x="695.6" y="497.0" font-family="Arial, Helvetica, 'DejaVu Sans', sans-serif" font-size="13.0" text-anchor="start" font-weight="normal" fill="#1f2328" >CO + CO</text><text x="749.4" y="500.1" font-family="Arial, Helvetica, 'DejaVu Sans', sans-serif" font-size="9.1" text-anchor="start" font-weight="normal" fill="#1f2328" >2</text><text x="895.0" y="497.0" font-family="Arial, Helvetica, 'DejaVu Sans', sans-serif" font-size="13" text-anchor="middle" font-weight="normal" fill="#1f2328" >no gas</text><rect x="30" y="512" width="950" height="40" fill="#f6f8fa" stroke="#d0d7de" stroke-width="1"/><text x="42.0" y="537.0" font-family="Arial, Helvetica, 'DejaVu Sans', sans-serif" font-size="13.5" text-anchor="start" font-weight="bold" fill="#1f2328" >Esterification (fruity smell)</text><circle cx="385.0" cy="532.0" r="12" fill="#16a34a"/><polyline points="379.5,532.5 383.5,536.5 391.0,527.5" fill="none" stroke="#fff" stroke-width="2.6" stroke-linecap="round" stroke-linejoin="round"/><circle cx="555.0" cy="532.0" r="12" fill="#16a34a"/><polyline points="549.5,532.5 553.5,536.5 561.0,527.5" fill="none" stroke="#fff" stroke-width="2.6" stroke-linecap="round" stroke-linejoin="round"/><circle cx="725.0" cy="532.0" r="12" fill="#16a34a"/><polyline points="719.5,532.5 723.5,536.5 731.0,527.5" fill="none" stroke="#fff" stroke-width="2.6" stroke-linecap="round" stroke-linejoin="round"/><circle cx="895.0" cy="532.0" r="12" fill="#16a34a"/><polyline points="889.5,532.5 893.5,536.5 901.0,527.5" fill="none" stroke="#fff" stroke-width="2.6" stroke-linecap="round" stroke-linejoin="round"/></svg>